<mxfile host="app.diagrams.net" modified="2022-01-19T12:18:40.433Z" agent="5.0 (Macintosh; Intel Mac OS X 10_15_7) AppleWebKit/537.36 (KHTML, like Gecko) Chrome/97.0.4692.71 Safari/537.36" etag="8INC9MIvwhp59KqTxwLq" version="16.2.7" type="github">
  <diagram id="u1kCTpeqTA33msJOPd5H" name="Page-1">
    <mxGraphModel dx="1298" dy="756" grid="1" gridSize="10" guides="1" tooltips="1" connect="1" arrows="1" fold="1" page="1" pageScale="1" pageWidth="827" pageHeight="1169" math="0" shadow="0">
      <root>
        <mxCell id="0" />
        <mxCell id="1" parent="0" />
        <mxCell id="w0Q0EJokFVjsJilTZEPL-3" value="" style="edgeStyle=orthogonalEdgeStyle;rounded=0;orthogonalLoop=1;jettySize=auto;html=1;exitX=1.017;exitY=0.133;exitDx=0;exitDy=0;exitPerimeter=0;" edge="1" parent="1" source="w0Q0EJokFVjsJilTZEPL-1" target="w0Q0EJokFVjsJilTZEPL-2">
          <mxGeometry relative="1" as="geometry" />
        </mxCell>
        <mxCell id="w0Q0EJokFVjsJilTZEPL-4" value="&lt;span style=&quot;font-family: &amp;#34;jetbrains mono&amp;#34; , monospace ; font-size: 9.8pt&quot;&gt;internalEntryDetailService&lt;/span&gt;&lt;span style=&quot;font-family: &amp;#34;jetbrains mono&amp;#34; , monospace ; font-size: 9.8pt&quot;&gt;.findByIdNumbers&lt;/span&gt;" style="edgeLabel;html=1;align=center;verticalAlign=middle;resizable=0;points=[];labelBackgroundColor=#FFFFFF;fontColor=#000000;" vertex="1" connectable="0" parent="w0Q0EJokFVjsJilTZEPL-3">
          <mxGeometry x="0.025" y="1" relative="1" as="geometry">
            <mxPoint as="offset" />
          </mxGeometry>
        </mxCell>
        <mxCell id="w0Q0EJokFVjsJilTZEPL-9" style="edgeStyle=orthogonalEdgeStyle;rounded=0;orthogonalLoop=1;jettySize=auto;html=1;exitX=1;exitY=0.75;exitDx=0;exitDy=0;entryX=0;entryY=0.5;entryDx=0;entryDy=0;fontColor=#000000;" edge="1" parent="1" source="w0Q0EJokFVjsJilTZEPL-1" target="w0Q0EJokFVjsJilTZEPL-5">
          <mxGeometry relative="1" as="geometry" />
        </mxCell>
        <mxCell id="w0Q0EJokFVjsJilTZEPL-12" value="queryRpc.findUserInfoByIdNums" style="edgeLabel;html=1;align=center;verticalAlign=middle;resizable=0;points=[];fontColor=#000000;" vertex="1" connectable="0" parent="w0Q0EJokFVjsJilTZEPL-9">
          <mxGeometry x="0.6854" y="2" relative="1" as="geometry">
            <mxPoint x="-99" y="2" as="offset" />
          </mxGeometry>
        </mxCell>
        <mxCell id="w0Q0EJokFVjsJilTZEPL-1" value="&lt;pre style=&quot;font-family: &amp;quot;jetbrains mono&amp;quot;, monospace; font-size: 9.8pt;&quot;&gt;&lt;pre style=&quot;font-family: &amp;quot;jetbrains mono&amp;quot; , monospace ; font-size: 9.8pt&quot;&gt;PaymentDetails&lt;/pre&gt;&lt;/pre&gt;" style="rounded=0;whiteSpace=wrap;html=1;labelBackgroundColor=#FFFFFF;fontColor=#000000;" vertex="1" parent="1">
          <mxGeometry x="70" y="220" width="120" height="60" as="geometry" />
        </mxCell>
        <mxCell id="w0Q0EJokFVjsJilTZEPL-14" value="" style="edgeStyle=orthogonalEdgeStyle;rounded=0;orthogonalLoop=1;jettySize=auto;html=1;fontColor=#000000;" edge="1" parent="1" source="w0Q0EJokFVjsJilTZEPL-2" target="w0Q0EJokFVjsJilTZEPL-13">
          <mxGeometry relative="1" as="geometry" />
        </mxCell>
        <mxCell id="w0Q0EJokFVjsJilTZEPL-15" value="&lt;span style=&quot;font-size: 11px&quot;&gt;candidateDetails.getRecommenderErp;&lt;/span&gt;&lt;br&gt;queryRpc.findUserInfoByErps(recommenderErps, DateUtil.getNowMonth());" style="edgeLabel;html=1;align=center;verticalAlign=middle;resizable=0;points=[];fontColor=#000000;" vertex="1" connectable="0" parent="w0Q0EJokFVjsJilTZEPL-14">
          <mxGeometry x="0.4343" y="1" relative="1" as="geometry">
            <mxPoint x="-126" y="1" as="offset" />
          </mxGeometry>
        </mxCell>
        <mxCell id="w0Q0EJokFVjsJilTZEPL-2" value="&lt;pre style=&quot;font-family: &amp;#34;jetbrains mono&amp;#34; , monospace ; font-size: 9.8pt&quot;&gt;&lt;span style=&quot;background-color: rgb(255 , 255 , 255)&quot;&gt;候选人明细&lt;/span&gt;&lt;/pre&gt;&lt;font face=&quot;jetbrains mono, monospace&quot;&gt;&lt;span style=&quot;font-size: 13.0667px&quot;&gt;candidateDetails&lt;/span&gt;&lt;/font&gt;&lt;pre style=&quot;font-family: &amp;#34;jetbrains mono&amp;#34; , monospace ; font-size: 9.8pt&quot;&gt;InternalEntryDetail&lt;/pre&gt;" style="whiteSpace=wrap;html=1;rounded=0;" vertex="1" parent="1">
          <mxGeometry x="650" y="100" width="180" height="70" as="geometry" />
        </mxCell>
        <mxCell id="w0Q0EJokFVjsJilTZEPL-5" value="候选人实时信息&lt;br&gt;UserInfoDTO(idNum、..)" style="whiteSpace=wrap;html=1;rounded=0;" vertex="1" parent="1">
          <mxGeometry x="650" y="270" width="190" height="80" as="geometry" />
        </mxCell>
        <mxCell id="w0Q0EJokFVjsJilTZEPL-13" value="&lt;span style=&quot;font-size: 13.0667px&quot;&gt;推荐者明细&lt;br&gt;recommenderDetails&lt;/span&gt;" style="whiteSpace=wrap;html=1;rounded=0;" vertex="1" parent="1">
          <mxGeometry x="1410" y="100" width="180" height="70" as="geometry" />
        </mxCell>
      </root>
    </mxGraphModel>
  </diagram>
</mxfile>
